<svg width="500" height="500" viewBox="0 0 500 500" fill="none" xmlns="http://www.w3.org/2000/svg">
<g clip-path="url(#clip0_2_2)">
<rect x="-42" y="8" width="572" height="524" fill="black"/>
<path d="M233.44 183.239C298.166 183.239 362.892 183.322 427.618 
183.191C444.136 183.156 458.08 188.07 467.495 202.266C471.654 208.549 
474.395 215.545 474.014 223.351C473.645 231.003 475.003 238.737 472.226 246.269C471.166 
249.149 473.156 252.028 473.788 254.884C476.85 268.64 477.518 282.348 470.629 295.116C462.275 
310.608 448.259 316.927 431.145 316.951C382.902 317.034 334.646 316.986 286.403 316.986C213.739 
316.986 141.064 316.986 68.4008 316.986C49.7135 316.986 35.4836 309.668 27.2364 292.26C23.1605 
283.669 24.0424 274.649 24.1616 265.617C24.4 247.388 33.4933 235.322 49.8566 228.266C55.1838 225.969 
60.8806 225.327 66.6965 225.327C188.605 225.362 310.513 225.362 432.421 225.327C440.537 225.327 448.224 
226.897 455.136 231.169C459.188 233.68 459.534 232.073 459.617 228.349C460.058 208.561 449.451 198.03 
428.75 198.018C296.712 198.018 164.685 198.018 32.6471 197.946C30.6688 197.946 27.439 199.327 26.867 
196.756C25.9493 192.592 25.6394 188.022 27.0934 183.905C27.6416 182.358 30.3827 183.263 32.1108 
183.263C65.2664 183.227 98.4219 183.239 131.577 183.239C165.532 183.239 199.486 183.239 233.428 183.239H233.44ZM238.147 
275.042C175.006 275.042 111.865 275.042 48.7244 275.042C46.7341 275.042 44.7438 275.149 42.7654 275.042C39.2496 274.827 
38.5346 276.327 38.7968 279.718C39.774 292.545 51.1199 302.148 66.1125 302.16C188.223 302.196 310.346 302.16 432.456 
302.208C437.331 302.208 441.955 301.22 446.245 299.161C458.974 293.057 462.275 282.253 461.274 269.104C460.94 264.725 
459.724 265.034 456.852 267.045C447.878 273.328 437.76 275.137 426.974 275.113C364.036 275.006 301.086 275.054 238.147 
275.054V275.042ZM238.266 260.108V260.465C302.98 260.465 367.695 260.513 432.421 260.394C438.868 260.394 444.946 258.204 
450.083 254.17C455.315 250.065 455.053 248.007 449.404 244.532C443.409 240.843 436.818 240.046 429.977 240.046C354.93 
240.07 279.884 240.058 204.837 240.058C158.774 240.058 112.711 240.058 66.6488 240.058C57.0073 240.058 48.7482 242.937 
42.968 251.184C41.2757 253.599 38.618 256.241 39.8932 258.93C40.9897 261.25 44.5888 260.049 47.0797 260.049C110.817 
260.096 174.541 260.084 238.278 260.084L238.266 260.108Z" fill="white"/>
</g>
<defs>
<clipPath id="clip0_2_2">
<rect width="500" height="500" fill="white"/>
</clipPath>
</defs>
</svg>
